<svg class="Header_logo__eoAf_" viewBox="0 0 258 348" xmlns="http://www.w3.org/2000/svg"><g fill-rule="evenodd"><path d="M161.841 1.095C161.59.345 160.965 0 159.869 0H96.997c-1.002 0-1.471.376-1.722 1.095v.501c0 .876-.125 2.097 0 2.722 0 .877.501 1.471 1.596 1.471h63.968c.877 0 1.346-.375 1.471-1.22.125-.626 0-1.22 0-1.847 0-.125 0-.5-.125-.876 0-.25 0-.626-.125-.75h-.251.032ZM38.568 36.488c.251.75.501 1.596.626 2.347 0 .5.25 1.001.376 1.47.876 2.973 1.971 5.915 4.193 8.011 3.192 2.973 8.137 3.818 12.205 2.723 2.848-.751 5.164-3.067 5.915-6.04.626-2.597.251-5.538-1.345-7.76-1.221-1.596-3.067-2.723-5.039-2.973h-.751c-.751 0-1.471-.25-2.097-.5-1.346-.877-.501-2.473.25-3.443 3.568-4.944 9.859-6.04 15.523-5.289 10.234 1.22 17.745 6.666 23.785 14.802 1.971 2.723 3.692 5.664 5.038 8.762.376.751.626 1.346.876 1.846 1.002 2.347 1.346 3.067 1.972 3.317.25.126.626.126 1.221.126h2.973v-7.041c-14.428-24.284-30.576-35.737-55.831-27.35 22.814-14.176 47.099 6.29 55.831 25.629V34.892c-1.471-2.472-3.193-4.694-4.945-6.916-.501-.626-1.002-1.22-1.471-1.846-.876-1.096-1.721-2.222-2.723-3.317a49.699 49.699 0 0 0-3.818-3.443c-3.693-3.066-7.886-5.664-12.455-7.26-2.723-1.001-5.414-1.72-8.137-2.096-.501 0-1.095-.125-1.596-.25a23.225 23.225 0 0 1-4.069-.752 11.293 11.293 0 0 1-2.347-1.095c-1.471-.75-3.067-1.47-4.819-1.47-1.847 0-3.693.876-4.82 2.471-.5 1.002-.751 1.722-1.001 2.473-.501 1.596-.876 2.722-3.568 3.817-2.097.877-4.068 1.847-5.79 3.192-2.222 1.596-4.193 3.568-5.539 5.915s-2.848 5.789-1.346 8.386c.376.5.752 1.002 1.096 1.346.751.75 1.345 1.47 1.721 2.472h-.125l.031-.031Z" fill-rule="nonzero"></path><path d="M25.017 89.874c-1.471-1.22-2.722-2.598-3.693-4.194a10.962 10.962 0 0 1-1.22-3.317c-.376-2.222-.501-4.443-.125-6.665 1.22-8.011 6.666-14.802 13.425-18.87 1.471-.876 3.193-1.47 4.82-1.971 1.22-.376 2.347-.751 3.568-1.002 1.721-.25 3.442-.25 5.163-.25 1.722 0 4.194.125 6.291.626 1.471.25 2.973.75 4.319 1.345a65.538 65.538 0 0 1 5.038 2.848c10.359 7.135 14.678 20.967 12.706 32.92a37.98 37.98 0 0 1-4.945 12.705c-.876 1.471-1.721 2.848-2.722 4.194-1.002 1.345-2.222 2.722-4.069 2.847-.751 0-1.471 0-2.222-.125h-.876c-1.095-.125-2.097-.25-3.192-.25h-.751c-1.471 0-3.943-.125-3.443-1.721.251-.751 1.096-1.596 1.722-2.222.751-.751 1.596-1.596 2.222-2.472 4.318-5.038 6.916-11.704 6.54-18.37 0-5.038-1.721-10.232-5.539-13.674-4.194-4.069-10.734-5.54-16.148-3.443-2.473 1.002-4.695 2.473-6.166 4.694-.5.877-1.001 1.847-1.001 2.848s1.095 1.971 2.222 2.597c.375.25.751.501 1.095.751 1.847 1.471 2.848 3.943 2.598 6.29-.376 4.194-3.818 6.29-7.762 6.54-2.847.25-5.664-.75-7.886-2.597l.031-.062Zm11.705-29.98c-6.791 2.974-11.454 8.012-12.957 15.272-.25 1.346-.5 2.848-.375 4.068a7.761 7.761 0 0 0 2.097 4.193c.876.751 1.846 1.22 2.973 1.095 1.001-.125 1.721-1.22.626-1.971-.251-.125-.626-.25-.877-.376-.25 0-.375-.125-.626-.25-.25 0-.625-.375-.876-.5-1.001-.877-1.345-2.222-1.345-3.568 0-4.068 2.347-7.886 5.288-10.483 6.416-5.914 14.177-7.76 22.69-5.414 3.067.876 6.04 2.222 8.512 4.068.376.376 1.095.876 1.596.751.751 0 .25-1.095 0-1.47-1.001-1.471-2.472-2.598-3.943-3.443-.125 0-.376-.25-.501-.25-.25-.125-.626-.376-.876-.5-1.095-.627-2.347-1.002-3.443-1.471h-.25c-2.222-.752-4.569-1.22-6.791-1.346-3.693-.25-7.511.376-10.86 1.846l-.125-.25h.063ZM232.6 89.874c1.471-1.22 2.723-2.598 3.693-4.194a10.962 10.962 0 0 0 1.22-3.317c.376-2.222.501-4.443.126-6.665-1.221-8.011-6.666-14.802-13.426-18.87-1.471-.876-3.192-1.47-4.82-1.971-1.22-.376-2.347-.751-3.567-1.002-1.722-.25-3.443-.25-5.164-.25-1.721 0-4.194.125-6.29.626-1.471.25-2.974.75-4.319 1.345a65.37 65.37 0 0 0-5.039 2.848c-10.359 7.135-14.677 20.967-12.706 32.92a38 38 0 0 0 4.945 12.705c.876 1.471 1.721 2.848 2.723 4.194 1.001 1.345 2.222 2.722 4.068 2.847.751 0 1.471 0 2.222-.125h.876c1.096-.125 2.097-.25 3.192-.25h.751c1.471 0 3.944-.125 3.443-1.721-.25-.751-1.095-1.596-1.721-2.222-.751-.751-1.596-1.596-2.222-2.472-4.319-5.038-6.917-11.704-6.541-18.37 0-5.038 1.721-10.232 5.539-13.674 4.194-4.069 10.735-5.54 16.149-3.443 2.472 1.002 4.694 2.473 6.165 4.694.501.877 1.001 1.847 1.001 2.848s-1.095 1.971-2.222 2.597c-.375.25-.751.501-1.095.751-1.846 1.471-2.848 3.943-2.597 6.29.375 4.194 3.818 6.29 7.761 6.54 2.848.25 5.664-.75 7.886-2.597l-.031-.062Zm-11.704-29.98c6.791 2.974 11.454 8.012 12.956 15.272.25 1.346.501 2.848.375 4.068a7.767 7.767 0 0 1-2.096 4.193c-.877.751-1.847 1.22-2.973 1.095-1.002-.125-1.722-1.22-.626-1.971.25-.125.626-.25.876-.376.25 0 .501-.125.626-.25.25 0 .626-.375.876-.5 1.001-.877 1.346-2.222 1.346-3.568 0-4.068-2.347-7.886-5.289-10.483-6.416-5.914-14.177-7.76-22.689-5.414-3.067.876-6.04 2.222-8.513 4.068-.375.376-1.095.876-1.596.751-.751 0-.25-1.095 0-1.47 1.002-1.471 2.473-2.598 3.943-3.443.126 0 .376-.25.501-.25.251-.125.626-.376.876-.5 1.096-.627 2.348-1.002 3.443-1.471h.25c2.222-.752 4.569-1.22 6.791-1.346 3.693-.25 7.511.376 10.86 1.846l.125-.25h-.062Z"></path><path d="M62.102 186.976c-1.095-1.972-1.471-4.068-1.001-6.165.5-2.722 3.818-3.818 5.915-2.096.5.5 1.095.876 1.47 1.345.877.876 1.972 1.095 2.973 1.002 1.597 0 3.193-.501 4.57-1.346 1.001-.501 2.096-.751 3.192-.626 2.347.376 4.444-.125 6.415-1.596.126 0 .251-.25.501-.375.501-.376 1.002-.877 1.346-.501.501.501 0 1.095-.376 1.596 0 0-.25.25-.25.375-3.317 4.569-7.887 6.666-13.301 6.791h-1.971c-.376 0-.751 0-1.002.375-.25.376 0 .752.251 1.002.751 1.001 1.721 1.345 2.847 1.345 4.82 0 9.107-1.47 12.456-5.163.25-.25.501-.501.876-.375.376.125.251.5.126.751v.25c-.251 1.22 0 2.597.125 3.818v.25c0 .25.25.501.626.501.375 0 .626-.251.751-.626.125-.501.25-1.095.25-1.596 0-4.318 1.002-8.387 2.598-12.329v-.126s0-.25.125-.375c1.345-3.317 2.722-6.666 2.472-10.358 0-.501 0-1.002-.626-1.095-.626 0-.751.5-.876.876-.125.5-.125.876-.25 1.345v.376c-.752 5.288-3.193 9.356-7.887 11.954-1.471.876-3.067 1.22-4.694 1.001-1.221 0-2.097-1.095-2.222-2.472 0-1.095.626-1.971 1.846-2.347.626-.125 1.346-.375 1.972-.501 3.693-.625 5.539-3.317 6.791-6.54.626-1.596.876-3.192 1.095-4.944.126-1.002.626-1.596 1.471-1.972 1.471-.5 2.598-1.47 3.568-2.722.751-1.001 1.095-1.001 2.222-.376 2.222 1.221 2.973 3.192 3.067 5.664.125 2.973 0 5.79-.501 8.637-.25 1.972-.751 3.943-1.346 5.789-.375 1.096 0 1.722 1.002 2.347 1.346.877 2.347 1.972 2.973 3.568.25.751.375 1.471.375 2.222 0 1.971-1.846 3.066-3.692 2.221-.752-.375-1.096-.876-1.596-1.345-.376-.376-.752-.876-1.221-1.095-.626-.376-1.001.125-1.095.625-.501 1.722-.751 3.443-.501 5.164.25 2.472.876 4.694 2.597 6.665 1.597 1.847 3.568 2.723 5.79 3.067 1.596.25 1.972.626 1.847 2.347v2.722c0 1.471-.376 2.097-1.847 2.473-2.472.625-4.819.125-6.916-1.002-5.164-2.847-8.262-7.26-9.858-12.705l-.626-2.222c-.376-1.22-.876-1.47-1.972-.625-1.846 1.47-3.943 2.347-6.29 2.722-5.665 1.001-11.83-1.001-14.553-5.539l-.031-.031ZM196.61 180.717c.376 2.222.125 4.319-1.001 6.165-2.723 4.569-8.888 6.665-14.553 5.539-2.347-.376-4.444-1.221-6.29-2.723-1.095-.876-1.596-.625-1.972.626l-.626 2.222c-1.596 5.539-4.694 9.983-9.858 12.705-2.096 1.22-4.444 1.721-6.916 1.001-1.346-.375-1.846-1.001-1.846-2.472v-2.722c-.126-1.721.25-2.097 1.846-2.347 2.347-.376 4.319-1.221 5.79-3.067 1.596-1.971 2.347-4.193 2.597-6.665.125-1.721 0-3.443-.5-5.164 0-.5-.376-1.001-1.096-.626-.626.376-.876.751-1.22 1.096-.376.5-.877 1.001-1.596 1.345-1.847.877-3.693-.25-3.693-2.221 0-.752 0-1.471.375-2.222.501-1.596 1.596-2.723 2.973-3.568.877-.626 1.346-1.22 1.002-2.347-.501-1.846-1.096-3.817-1.346-5.789-.375-2.848-.626-5.664-.501-8.637.126-2.472.877-4.443 3.067-5.664 1.096-.626 1.346-.751 2.222.376 1.002 1.22 2.097 2.222 3.568 2.722.876.376 1.346 1.002 1.471 1.972.25 1.596.501 3.317 1.095 4.944 1.221 3.192 3.067 5.914 6.791 6.54.626 0 1.346.251 1.972.501 1.22.375 1.972 1.22 1.846 2.347-.125 1.345-.876 2.347-2.222 2.472a8.44 8.44 0 0 1-4.694-1.001c-4.694-2.598-7.26-6.791-7.886-11.954v-.376c0-.5 0-.876-.251-1.345 0-.501-.25-1.002-.876-.877-.626 0-.626.501-.626 1.096-.125 3.692 1.221 7.041 2.472 10.358 0 .25.126.375.251.626 1.596 3.942 2.722 8.011 2.597 12.329 0 .501 0 1.095.251 1.596 0 .375.375.626.751.626.375 0 .626-.251.626-.501v-.25c.25-1.221.5-2.598.125-3.818v-.25c0-.251-.125-.626.125-.751.376-.251.626 0 .876.375 3.318 3.693 7.636 5.163 12.456 5.163 1.095 0 2.097-.5 2.848-1.345a.975.975 0 0 0 .25-1.002c-.25-.375-.626-.5-1.001-.375h-1.972c-5.414-.125-9.983-2.222-13.301-6.791 0 0-.25-.25-.25-.375-.375-.501-.876-1.095-.375-1.596.375-.376.876 0 1.345.501.125.125.251.25.501.375 1.846 1.471 4.068 1.972 6.416 1.596 1.095-.125 2.222 0 3.192.626 1.471.876 2.973 1.22 4.569 1.346 1.095 0 2.222-.126 2.973-1.002.501-.501 1.001-1.001 1.471-1.345 2.097-1.722 5.414-.626 5.915 2.096l-.126-.125-.031.031Z" fill-rule="nonzero"></path><path d="M85.042 133.997c3.943 3.943 8.637 4.694 13.676 3.067 3.568-1.096 5.664-5.164 4.945-9.013-.251-1.001-.501-2.096-1.002-2.973-.626-1.001-1.345-1.721-2.597-1.596-1.221 0-1.847.877-2.097 1.847-.501 2.722-2.472 3.066-4.694 3.192-3.318.125-6.291-1.096-9.107-2.848-1.847-1.095-2.222-1.095-4.069 0a157.629 157.629 0 0 1-9.107 6.29c-2.472 1.596-1.971 2.722-1.095 4.569.125.375.25.625.501 1.001 1.001 2.722.751 5.539 0 8.261-.251 1.221-1.346 1.596-2.473 1.721-1.971.126-3.442 1.096-4.319 2.973-1.001 2.222-.375 5.414 2.222 7.041 4.444 2.598 9.233.376 11.58-2.472a13.78 13.78 0 0 0 2.848-4.819c1.095-3.693 1.345-7.385.125-11.203a.953.953 0 0 0-.251-.626.958.958 0 0 0-.25-.626c0-.375-.125-.626.125-.876a.607.607 0 0 1 .877 0c1.345.501 2.347 1.471 2.973 2.597 1.095 1.847 2.222 3.693 2.597 6.04.376 2.222 0 4.318-.375 6.415a9.016 9.016 0 0 1-.501 1.721c-.376.876-.626 1.721.25 2.597.877 1.002 1.722 1.471 3.067 1.096 2.222-.626 3.943-2.598 4.319-4.945v-.5s0-.376.125-.626c0-.626.251-1.095.876-1.221.626 0 .877.376 1.221.751 0 .126.25.251.376.376 1.22 1.471 2.597 2.848 4.694 3.192 1.971.25 3.317-1.095 2.848-3.067-.251-1.22-.877-2.222-1.471-3.317l-.376-.751c-1.001-1.846-2.096-3.693-3.567-5.414-.751-.876-1.596-1.596-2.848-1.721h-.251c-.25 0-.5 0-.751.125-.25.376 0 .501.251.751l.125.126c1.471 1.721 2.848 3.442 3.317 5.664 0 .25.251.626-.125.751s-.751 0-1.001 0a2.934 2.934 0 0 1-.877-.877 37.601 37.601 0 0 0-4.319-5.664c-.25-.25-.5-.5-.751-.625-.25-.251-.626-.501-.876-.126-.25.251 0 .501 0 .751 1.221 2.097 1.221 4.319 1.221 6.666v1.095c0 .376 0 .501-.251.626-.125.376-.5.376-.876.376-.501-.126-.626-.626-.626-1.002 0-1.721-.25-3.442-.751-5.163-.626-2.347-1.721-4.569-3.443-6.415-.625-.626-1.22-1.346-1.846-1.972-.376-.375-.751-.876-1.22-1.22-.877-.876-1.096-1.721-.877-2.848 1.346.125 1.972 1.002 2.723 1.846.25.251.501.626.751.877l.376.125h.031Zm1.095-3.943c.251-.25.501-.125.751 0h.126c.5.25 1.095.375 1.596.626 1.721.751 3.442 1.345 5.414 1.471.876 0 1.596 0 2.472-.251.501 0 1.001-.25 1.471-.25h.375c.376 0 .877-.125 1.002.375.25.626-.25 1.002-.876 1.346-1.346.751-2.848 1.095-4.444 1.095-2.848 0-5.289-1.095-7.511-2.973-.125-.125-.376-.25-.376-.5-.25-.251-.5-.626-.125-1.002h.125v.063Zm-11.329 20.559a6.382 6.382 0 0 1-4.444 2.723c-.5 0-1.095 0-1.22-.626-.251-.626 0-1.001.626-1.346 3.192-1.721 4.694-4.568 5.038-8.136 0-.375 0-.876.125-1.22 0-.251 0-.501.126-.876 0-.376.125-.751.626-.751.5 0 .751.25.876.751.25.876.375 1.596.501 2.472 0 2.597-.877 4.944-2.222 7.041l-.032-.032ZM158.993 137.064c5.039 1.47 9.733.751 13.676-3.067.251-.251.501-.501.751-.876.751-.877 1.471-1.722 2.723-1.847.125 1.002 0 1.972-.876 2.848-.376.375-.751.876-1.221 1.22-.626.626-1.22 1.346-1.846 1.972-1.721 1.846-2.723 3.943-3.443 6.415-.5 1.721-.626 3.442-.751 5.163 0 .501-.125.876-.626 1.002-.375 0-.626 0-.876-.376v-.25c0-.251-.25-.376-.25-.626v-1.095c0-2.347 0-4.569 1.22-6.666.125-.25.376-.5 0-.751-.25-.25-.626 0-.876.125-.25.251-.501.376-.751.626-1.596 1.721-3.067 3.568-4.319 5.664a2.93 2.93 0 0 1-.876.877c-.376.25-.751.25-1.002 0-.375-.251-.25-.501-.125-.752v-.25c.501-2.222 1.847-3.943 3.317-5.664l.126-.125c.25-.25.375-.376.25-.751-.125-.25-.501-.25-.751-.125h-.25c-1.221.125-2.097.876-2.848 1.721-1.346 1.596-2.473 3.442-3.568 5.414l-.376.751c-.625 1.095-1.22 2.096-1.47 3.317-.501 1.971.751 3.442 2.847 3.066 2.097-.375 3.443-1.721 4.695-3.192 0-.125.25-.25.375-.375.251-.376.626-.876 1.221-.751.626 0 .751.751.876 1.22 0 .251 0 .376.125.626v.501c.376 2.347 2.097 4.443 4.319 4.944 1.346.376 2.222-.125 3.067-1.095.876-.876.501-1.721.25-2.597a8.949 8.949 0 0 1-.5-1.722c-.501-2.096-.751-4.193-.376-6.415.376-2.221 1.471-4.193 2.598-6.039.625-1.095 1.596-2.097 2.973-2.597h.876c.375.25.25.625.125.876 0 .25-.125.5-.25.626 0 .25-.125.5-.251.751-1.22 3.817-1.001 7.51.126 11.203.5 1.846 1.596 3.317 2.847 4.819 2.473 2.847 7.261 5.038 11.58 2.472 2.597-1.596 3.192-4.819 2.222-7.041-.751-1.846-2.347-2.723-4.319-2.973-1.095 0-2.097-.501-2.472-1.721-.751-2.723-.877-5.539 0-8.261.125-.376.25-.751.5-1.002.877-1.846 1.346-2.973-1.095-4.569-3.067-1.971-6.165-4.193-9.107-6.289-1.721-1.221-2.222-1.221-4.068 0-2.848 1.721-5.79 2.972-9.107 2.847-2.222 0-4.194-.501-4.695-3.192-.25-1.001-.751-1.846-2.096-1.846-1.221 0-2.097.626-2.598 1.596-.501.97-.751 1.971-1.001 2.973-.752 3.943 1.345 8.011 4.944 9.012l.376.251h.031Zm11.83-7.01c.25-.125.501-.25.751 0 .25.375 0 .751-.125 1.001 0 .251-.251.376-.376.501-2.097 1.846-4.694 2.848-7.511 2.973-1.596 0-2.973-.376-4.444-1.095-.626-.251-1.095-.626-.876-1.346.25-.626.626-.501 1.001-.376h.376c.501 0 1.001.126 1.471.251.876.125 1.596.25 2.472.25 1.972 0 3.693-.751 5.414-1.471.501-.25 1.096-.375 1.596-.626h.251v-.062Zm16.399 23.407c-1.847-.25-3.318-1.22-4.444-2.722-1.346-2.097-2.097-4.444-2.222-7.041 0-.877.25-1.596.5-2.473.126-.375.501-.751.877-.751.375 0 .5.376.626.751 0 .251 0 .501.125.877 0 .375.125.751.125 1.22.25 3.568 1.721 6.415 5.039 8.136.5.376.751.751.625 1.346-.25.626-.751.751-1.22.626l-.031.031ZM91.207 295.844c1.972 1.596 3.067 0 2.723-2.096-.501-2.222-1.721-3.693-3.693-4.569-1.721-.751-3.442-1.001-5.289-1.22-1.596-.126-1.972-.877-1.001-2.097 2.347-3.192 2.222-6.665.751-10.108-1.722-3.692-4.82-5.413-8.763-4.443-.876.25-1.596.751-2.097 1.47-1.095 1.221-.876 2.222.626 2.973 1.596.877 2.472 2.222 2.347 4.068 0 1.096-1.001 2.347-2.096 2.723-1.346.375-2.723.25-4.194-.25-1.847-.626-2.848-1.972-3.443-3.568-1.001-2.222-1.22-4.694.751-6.415 1.471-1.22 1.471-3.943.501-5.664-.501-.751-.876-1.346-1.846-1.596-3.067-1.001-7.636 0-8.763 3.818-.375 1.22-1.001 1.471-2.222.876-1.596-.751-3.192-1.471-5.164-1.095-1.345.25-2.222 1.095-2.472 2.222-.25 1.095 0 3.317 1.221 3.817 2.722 1.096 3.943 3.443 4.944 5.915 1.346 3.066 4.444 6.79 7.511 8.261 3.943 2.472 8.137 4.068 12.706 4.569 1.846.25 3.693.25 5.539.125h2.598c1.596 0 3.192 0 4.819.376a8.791 8.791 0 0 1 4.194 1.846l-.125.125-.063-.063Zm-10.984-11.359c-.626 1.471-1.722 2.222-2.974 2.973-1.47.751-3.192.876-4.819.626-2.347-.251-4.444-1.221-6.416-2.472-1.596-1.096-2.472-2.723-3.317-4.444-.876-1.596-1.22-3.192-1.22-5.038 0-1.721.375-3.317 1.22-4.819.25-.376.376-.626.751-.751.751-.376 1.095-.251 1.095.626 0 .876-.125 1.595-.375 2.347-.876 3.191-.25 6.164 2.097 8.636 2.097 2.222 4.694 3.568 7.761 3.067 3.943-.626 5.79-4.318 4.194-8.136 0 0 0-.25-.126-.25 0-.126-.125-.251-.125-.376 0-.501.125-.876.501-1.095.375-.376.751 0 1.001.125.251.25.501.501.626.751 1.596 2.848 1.471 5.539.126 8.387v-.157ZM163.938 293.623c-.501 2.221.751 3.692 2.722 2.096 1.221-1.001 2.598-1.47 4.194-1.846a30.995 30.995 0 0 1 4.819-.376h2.598c1.846 0 3.693 0 5.539-.125 4.569-.5 8.888-2.096 12.706-4.568 3.067-1.471 6.165-5.164 7.511-8.262 1.002-2.472 2.222-4.819 4.945-5.914 1.346-.376 1.471-2.723 1.22-3.818-.375-1.22-1.095-1.971-2.472-2.222-1.846-.375-3.568.376-5.164 1.095-1.095.501-1.846.251-2.222-.876-1.095-3.943-5.664-4.944-8.762-3.817-1.002.375-1.346.876-1.847 1.595-1.001 1.722-1.001 4.444.501 5.664 1.971 1.722 1.721 4.194.751 6.416-.751 1.596-1.596 2.972-3.443 3.567-1.345.501-2.722.626-4.193.25-1.095-.25-1.972-1.47-2.097-2.722 0-1.846.751-3.192 2.347-4.068 1.471-.751 1.596-1.847.626-2.973-.626-.626-1.22-1.221-2.097-1.471-3.943-1.001-7.041.751-8.762 4.444-1.596 3.442-1.722 6.915.751 10.107 1.001 1.221.626 1.972-1.002 2.097-1.846.25-3.567.376-5.289 1.22-1.971.877-3.192 2.347-3.693 4.569l-.125-.125-.062.063Zm16.524-6.29c-1.221-.626-2.347-1.471-2.973-2.973-1.346-2.848-1.471-5.539.125-8.387.125-.25.375-.626.626-.751.25-.25.626-.5 1.001-.125.376.251.501.751.501 1.095 0 .126 0 .251-.125.376v.25c-1.596 3.818.25 7.511 4.193 8.136 3.067.501 5.79-.876 7.762-3.066 2.347-2.347 2.973-5.289 2.096-8.637a7.108 7.108 0 0 1-.375-2.347c0-.876.375-1.001 1.095-.626.376.125.501.501.751.751.877 1.471 1.346 3.067 1.221 4.819 0 1.721-.501 3.442-1.221 5.038-.876 1.596-1.721 3.317-3.317 4.444-1.972 1.22-4.068 2.222-6.416 2.472-1.596.125-3.317 0-4.819-.626l-.125.125v.032ZM29.054 170.109c1.596-2.097 3.693-2.472 6.04-2.472 2.598 0 5.164.125 7.762-.251.876-.125 1.596 0 2.347.251 2.722 1.001 5.414 1.471 8.262 1.22 2.597-.25 5.038-1.001 7.385-2.096.501-.251.877-.501 1.221-.877.25-.25.501-.375.751-.625.376-.251.751-.751.376-1.221-.251-.375-.877-.25-1.221 0-.751.25-1.596.626-2.347 1.002-3.943 1.595-8.012 2.096-12.08 1.095-1.847-.501-3.443-1.346-3.693-3.442-.25-1.221.626-2.347 1.846-2.598 1.096-.125 2.097.251 3.067.751.251.125.626.251.877.376 2.597 1.001 5.038 1.095 7.761.25a36.733 36.733 0 0 0 4.945-2.222c.751-.375 1.471-.375 2.222 0 2.096 1.221 4.318 1.346 6.666 1.346 1.001 0 1.47.626 1.001 1.721-1.596 3.567-3.067 5.414-5.915 7.886-2.723 2.472-5.915 4.193-9.232 5.664-.376.125-.626.25-1.001.375-1.597.626-3.193 1.346-4.444 2.598-1.002 1.001-1.096 1.345-.251 2.347.626.751 1.096 1.47 1.002 2.597 0 1.972-.501 2.723-2.598 3.567-1.346.626-2.973 0-4.068-.876-1.721-1.471-2.097-3.567-2.097-5.664v-.751c0-.751 0-1.471.125-2.347 0-1.001-.501-1.345-1.346-1.345h-8.136c-.501 0-.877-.376-1.096-.751-1.095-1.596-2.347-3.067-4.068-3.943-.501-.376-.376-.877 0-1.346v-.25l-.063.031Zm5.321 2.691c1.47.501 3.066.876 4.694 1.095.501 0 1.095.126 1.596.251 1.596.25 3.067.375 4.694.375 2.473 0 4.82-.25 7.136-1.095.5-.25 1.345-.626 1.22-1.22-.25-.626-.876-.501-1.596-.376h-.376c-4.569.626-9.013.125-13.55-.375h-1.002c-.25 0-.626 0-.876-.126-.501 0-1.095-.25-1.596-.125h-.251c-.5 0-1.001 0-1.095.626-.094.626.501.876.876 1.001h.126v-.031ZM222.491 167.762c2.473 0 4.569.376 6.04 2.472.501.626.501 1.002 0 1.346-1.846.876-3.067 2.347-4.068 3.943-.25.375-.626.751-1.095.751h-8.137c-.876 0-1.471.375-1.346 1.345 0 .751 0 1.471.125 2.347v.751c0 2.222-.25 4.194-2.097 5.664-1.095 1.002-2.847 1.471-4.068.877-2.097-.877-2.597-1.596-2.597-3.568 0-1.001.375-1.846 1.001-2.597.876-1.002.751-1.471-.25-2.347-1.221-1.221-2.848-1.972-4.444-2.597-.126 0-.251 0-.376-.126-.125 0-.375-.125-.501-.25-3.317-1.471-6.54-3.192-9.232-5.664-2.848-2.472-4.319-4.318-5.915-7.886-.5-1.095 0-1.721 1.002-1.721 2.347 0 4.569 0 6.666-1.346.751-.5 1.471-.5 2.222 0a33.491 33.491 0 0 0 4.944 2.222c2.723.876 5.164.751 7.762-.25.25 0 .626-.25.876-.376 1.001-.5 1.846-.876 3.067-.751 1.22.125 2.097 1.221 1.846 2.598-.375 2.096-1.971 2.972-3.692 3.442-4.069 1.001-8.137.501-12.081-1.095-.751-.376-1.596-.626-2.347-1.002-.375-.125-1.001-.25-1.22 0-.251.501 0 1.002.375 1.221.251.125.501.375.751.626.376.25.752.625 1.221.876 2.347 1.095 4.819 1.846 7.386 2.096 2.973.251 5.664-.25 8.262-1.22.751-.25 1.471-.376 2.347-.25 2.597.375 5.164.375 7.761.25l-.125.25-.063-.031Zm-3.818 6.165c1.596-.251 3.067-.501 4.695-1.096.5-.125 1.095-.375.876-1.001-.125-.626-.626-.626-1.095-.626h-.251c-.501 0-1.095 0-1.596.125-.25 0-.626 0-.876.126h-1.002c-4.569.5-9.107 1.001-13.551.375h-.125c-.626 0-1.345-.25-1.596.376-.25.625.626 1.001 1.221 1.22 2.347.876 4.694 1.095 7.135 1.095s3.192-.25 4.694-.375c.501 0 1.096-.125 1.596-.251h-.125v.032Z"></path><path d="M60.631 263.049c1.096-.375 1.722-1.095 2.097-2.222 1.095-3.191 3.067-5.914 5.539-8.136 3.318-2.973 7.136-4.694 11.58-5.038 2.722-.25 4.694.876 6.916 2.222h.25c1.847 1.22 3.818 1.22 5.665.125 1.095-.626 1.001-1.721 0-2.472-1.721-1.22-3.693-1.846-5.79-2.347-3.317-.751-6.666-.501-9.983.376-1.095.375-2.222.751-3.317 1.22-.376.125-.877.25-1.221.25h-.25c-.376 0-.751 0-.877-.375-.125-.376.126-.626.376-1.002l.125-.125c1.002-1.095 2.222-1.596 3.568-2.096.375-.126.751-.251 1.095-.501 2.973-1.221 6.165-1.471 9.232-1.221 1.972 0 3.693.751 5.415 1.346h.25s.125.125.25.125h.125c2.973 1.095 4.945 3.192 6.04 6.04 2.097 5.664 6.917 1.846 5.289-3.067-1.001-3.192-2.848-6.165-5.664-8.136-.501-.376-1.095-.626-1.721-.876-1.002-.376-1.346-1.221-1.002-2.222.751-1.721.125-3.442-1.471-4.444-2.347-1.596-6.666-1.471-9.232.376-.751.5-1.471 1.095-2.097 1.596-.25.25-.626.5-.876.751-.501.375-.751.876-.751 1.345.876 0 1.471-.375 2.222-.751.25 0 .376-.25.626-.375 1.971-.876 3.818-1.721 6.04-1.596h.626c.626.25 1.095.626 1.22 1.095 0 .626-.5.876-1.095 1.001-.376 0-.751 0-1.001.126-1.597.25-3.318.5-4.945 1.001-3.317 1.001-.251 1.471 1.596 1.846.375 0 .626 0 .751.125 1.596.376 3.192.877 4.569 1.722.125 0 .251.125.376.25 1.095.751 2.222 1.471 3.317 2.472.376.376.125.751-.376.751-.375 0-.751 0-1.001-.125-6.541-3.943-14.678-4.569-21.563-1.001-5.664 2.972-9.732 7.51-12.956 12.955-1.471 2.472-2.347 5.163-2.848 8.011-.25 1.22-.5 2.472-.626 3.693-.125 1.345.751 1.595 1.596.375.126-.25.251-.375.376-.626.751-1.22 1.471-2.347 3.192-2.973l.25.501.094.031ZM194.983 260.827c.375 1.096 1.001 1.847 2.097 2.222 1.721.626 2.472 1.721 3.192 2.973.125.25.25.376.375.626.877 1.22 1.722 1.001 1.596-.376-.125-1.22-.375-2.472-.625-3.692-.501-2.848-1.346-5.539-2.848-8.011-3.193-5.414-7.261-9.983-12.957-12.955-6.916-3.693-15.053-3.067-21.562 1.001-.251.125-.626.25-1.002.125-.5 0-.751-.375-.375-.751 1.095-1.095 2.097-1.721 3.317-2.472 0 0 .25-.125.376-.25 1.47-.751 2.973-1.346 4.569-1.722.25 0 .5 0 .751-.125 1.846-.375 4.945-1.001 1.596-1.846-1.596-.501-3.192-.751-4.945-1.001-.375 0-.751 0-1.001-.126-.626 0-1.221-.375-1.096-1.001 0-.626.626-1.001 1.221-1.095h.626c2.222 0 4.068.751 6.04 1.596.25 0 .375.25.626.375.751.376 1.345.751 2.222.751 0-.5-.376-1.001-.751-1.345-.251-.251-.626-.501-.877-.751-.751-.626-1.345-1.096-2.096-1.596-2.598-1.847-6.917-1.972-9.233-.376-1.596 1.095-2.096 2.723-1.47 4.444.375 1.001 0 1.846-1.002 2.222-.626.25-1.22.5-1.721.876-2.973 1.971-4.694 4.819-5.665 8.136-1.596 5.038 3.192 8.887 5.289 3.067 1.096-2.848 2.973-4.945 6.04-6.04l.501-.25c1.721-.626 3.568-1.221 5.414-1.346 3.192-.25 6.291 0 9.232 1.221.376.125.751.25 1.096.5 1.345.501 2.597 1.002 3.567 2.097l.126.125c.25.251.5.626.375 1.002-.125.375-.501.375-.876.375h-.251c-.5 0-.876 0-1.22-.25-1.095-.501-2.222-.876-3.317-1.221-3.318-1.001-6.666-1.22-9.984-.375-1.971.5-4.068 1.001-5.789 2.347-1.002.751-1.096 1.846 0 2.472 1.846 1.095 3.943 1.095 5.664 0 0 0 .251 0 .251-.125 2.096-1.221 4.193-2.472 6.916-2.222 4.569.375 8.387 2.097 11.579 5.038 2.473 2.222 4.569 4.944 5.539 8.136l.376-.375.094-.032Z" fill-rule="nonzero"></path><path d="M72.085 234.698c-.25.125-.5.375-.751.501-2.222 1.47-4.444 2.972-6.666 4.693-3.567 2.973-6.916 6.165-9.232 10.108-1.721 2.848-2.848 6.04-3.567 9.232-.251 1.345-.501 2.597-.626 3.942-.125 1.596 0 2.723 1.596 3.568 1.001 0 1.22-1.001 1.22-1.972 0-3.442 1.096-6.54 2.598-9.607 2.097-4.193 4.945-7.885 8.262-11.109 1.596-1.47 3.442-2.722 5.289-3.942 1.001-.752 1.971-1.346 2.973-2.097 3.442-2.472 5.414-5.664 6.415-9.732.126-.626.376-1.096.626-1.596.126-.251.376-.501.626-.501.376 0 .501.376.501.751 0 1.221-.25 2.472-.626 3.693v.25c-.125.25-.25.626 0 .876.376.125.626-.125.876-.5.751-1.002 1.596-2.222 2.097-3.443.751-1.721 1.095-3.442.501-5.413-.501-1.346-1.346-2.222-2.723-2.472-1.596-.376-3.067 0-4.193 1.22-.877 1.001-1.221 2.097-1.471 3.317 0 .25 0 .626-.126.876a18.512 18.512 0 0 0-.375 3.693c0 2.472-1.095 4.193-3.192 5.539v.125h-.032ZM186.377 235.198l-.251-.25-.5-.375c-1.972-1.346-3.067-3.067-3.193-5.539 0-1.221-.125-2.472-.375-3.693 0-.25 0-.626-.125-.876-.251-1.22-.626-2.347-1.471-3.317-1.096-1.346-2.598-1.596-4.194-1.221-1.345.251-2.222 1.096-2.723 2.473-.625 1.846-.25 3.567.501 5.413.501 1.221 1.221 2.472 2.097 3.443v.125c.25.25.501.626.876.5.376-.25.251-.5 0-.876v-.25c-.375-1.221-.626-2.472-.626-3.693 0-.375 0-.751.501-.751.376 0 .501.125.626.501.25.501.501 1.095.626 1.596 1.001 4.068 2.848 7.26 6.416 9.732 1.001.751 1.971 1.346 2.973 2.097 1.846 1.22 3.567 2.472 5.289 3.943 3.442 3.191 6.165 6.915 8.262 11.109 1.47 2.972 2.472 6.164 2.597 9.607 0 .876.25 1.971 1.221 1.971 1.47-.751 1.721-1.971 1.596-3.567-.126-1.346-.376-2.723-.626-3.943-.751-3.317-1.847-6.415-3.568-9.232-2.347-3.943-5.664-7.26-9.232-10.107-2.097-1.722-4.319-3.192-6.666-4.694v-.126h-.031ZM94.649 288.303c3.067-.626 5.665-2.222 7.762-4.569.25-.375.5-.626.751-.876.751-.876 1.471-1.721 1.971-2.973 2.097-4.318 2.723-8.762 1.722-13.425-.376-1.846-1.346-2.597-2.723-1.971-.626.25-1.002.751-.876 1.471.5 2.347.876 4.819.751 7.26 0 1.846-.376 3.567-1.002 5.163-.25.501-.5.876-1.095.751-.501-.125-.501-.751-.376-1.095.877-2.973.877-7.636-.751-10.483-.5-.752-.876-.752-1.471 0-1.721 1.721-1.846 3.942-1.971 6.289 0 4.194-.376 8.262-2.848 11.704 0 .125-.25.25-.25.376-.251.25-.376.5-.626.751-.251.375-.376.876-.126 1.345.251.47.877.501 1.221.376l-.125-.125.062.031ZM155.551 283.859c2.097 2.347 4.569 3.943 7.761 4.569.501 0 1.001.125 1.221-.376.25-.5.125-1.001-.126-1.345-.125-.25-.375-.501-.626-.751 0-.125-.25-.25-.25-.376-2.472-3.442-2.723-7.51-2.848-11.578 0-2.472-.125-4.694-1.971-6.415-.626-.626-1.002-.751-1.471 0-1.596 2.722-1.596 7.385-.751 10.483 0 .376 0 1.001-.376 1.095-.501 0-.876-.25-1.095-.751-.626-1.596-1.002-3.317-1.002-5.163 0-2.472.251-4.944.751-7.26.126-.876-.25-1.221-.876-1.471-1.346-.626-2.347.125-2.723 1.972-1.095 4.694-.5 9.231 1.722 13.424.5 1.346 1.22 2.097 1.971 2.973.251.25.501.626.751.876l-.125.126.063-.032Z" fill-rule="nonzero"></path><path d="M88.985 271.311c.501-.376.876 0 1.221.25 0 0 .125.125.25.125 1.346 1.095 2.097 2.598 2.848 4.193v.501c0 .501 0 .876.626.876 1.095 0 .751-2.972.626-3.817v-.126c-.376-2.722-2.097-5.538-5.039-6.289-1.001-.251-1.971-.251-2.973-.126-.501 0-1.001 0-1.22-.5-.251-.626.25-1.002.626-1.221 0 0 .375-.125.5-.25 2.723-1.001 5.665-.25 7.636 1.971.626.751 1.096.751 1.722 0 2.347-3.317 5.539-5.413 9.482-6.54.751-.25 1.471-.751 1.471-1.596 0-.845-.751-1.22-1.596-1.471-1.221-.25-2.347 0-3.568.376-2.722.751-4.694 2.597-6.54 4.444-1.002 1.001-1.972 1.095-3.193.625-1.22-.625-2.597-.876-3.943-.625-1.971.375-3.693 1.095-4.444 3.191-.751 2.097-.501 4.069 1.221 5.79l.25.25c1.002 1.001 1.847 1.971 2.472 3.192 1.471 3.192 1.847 6.29 0 9.482-.25.375-.5.876-.625 1.22-.126.344-.001.626.25.876.751.501 2.973.251 3.442-.375 2.097-2.472 1.972-5.414 1.221-8.387-.376-1.721-1.471-3.066-2.472-4.443 0 0 0-.126-.126-.251-.375-.375-.876-.876-.25-1.345h.125ZM167.38 271.561c.376-.375.877-.751 1.221-.25.626.5.125 1.001-.25 1.345-1.096 1.346-2.097 2.723-2.473 4.444-.751 2.973-.876 5.914 1.221 8.386.501.626 2.723.877 3.442.376.376-.25.376-.501.251-.876-.125-.501-.376-.876-.626-1.221-1.972-3.066-1.596-6.29 0-9.481.626-1.221 1.471-2.097 2.472-3.067l.251-.251c1.721-1.721 1.971-3.692 1.22-5.789-.751-2.096-2.472-2.847-4.444-3.192-1.346-.25-2.723 0-3.943.626-1.221.501-2.222.376-3.192-.626-1.847-1.971-3.944-3.692-6.541-4.443-1.221-.376-2.347-.501-3.568-.376-.876.125-1.596.501-1.596 1.471 0 .876.626 1.346 1.471 1.596 3.943 1.095 7.135 3.192 9.483 6.54.626.751 1.001.751 1.721 0 1.971-2.222 4.945-2.973 7.636-1.971.125 0 .375 0 .501.25.5.25.876.626.626 1.22-.126.501-.752.626-1.221.501-1.001-.125-1.972-.125-2.973.125-3.067.751-4.82 3.568-5.039 6.29 0 .876-.5 3.693.626 3.818.501 0 .626-.376.626-.876v-.501c.751-1.596 1.471-3.067 2.848-4.193l.25.125ZM13.156 180.936h6.666c1.972 0 4.069-.125 5.414 1.847 1.002 1.345 3.944.25 4.82-.626 1.346-1.346 1.846-3.067 1.001-4.569-1.22-2.472-3.442-3.693-6.165-3.818h-8.137c-2.973 0-5.914 0-8.887-.125-1.471 0-2.848 0-4.319-.25-.626 0-1.221-.251-1.346-1.096 0-.876.376-1.22 1.095-1.22H5.27c4.569 0 10.234-.25 14.427 0 3.192 0 6.04 0 8.137-2.973 1.596-2.347.751-5.038-1.972-5.413-.876 0-1.846 0-2.722.375-.751.501-1.596.501-2.598.501h-5.539c-1.721 0-3.443 0-5.039-1.221-1.971-1.47-4.819-.5-5.789 1.471-.501.876-.501 1.846-.376 2.723 0 1.095-.375 1.846-1.22 2.221-.877.501-1.346 1.221-1.847 2.097-.876 1.471-.501 3.192 1.002 4.193 1.095.626 1.345 1.471 1.095 2.723-.376 1.471-.125 2.973.626 4.318 1.596 2.598 5.664 2.973 7.135.251.626-.751 1.346-1.002 2.222-1.002l.376-.375-.032-.032ZM238.64 180.936h5.915c.876 0 1.596.251 2.222 1.002 1.471 2.597 5.539 2.347 7.135-.251.876-1.345 1.002-2.847.626-4.318-.25-1.22 0-1.972 1.095-2.723 1.471-1.001 1.972-2.722 1.002-4.193-.501-.876-1.002-1.596-1.847-2.096-.845-.501-1.345-1.221-1.22-2.222 0-1.002 0-1.847-.376-2.723-1.001-1.971-3.943-2.973-5.789-1.471-1.596 1.221-3.318 1.221-5.039 1.221h-5.539c-.876 0-1.721 0-2.598-.501-.876-.5-1.721-.5-2.722-.375-2.723.375-3.568 3.192-1.972 5.413 2.097 2.973 5.039 3.067 8.137 2.973 4.193-.125 9.983 0 14.427 0h1.972c.876 0 1.22.376 1.095 1.221 0 .751-.751 1.001-1.346 1.095-1.471.125-2.848.125-4.319.25-2.973 0-5.914 0-8.887.125h-8.137c-2.723 0-4.945 1.221-6.165 3.818-.752 1.471-.376 3.192 1.001 4.569.876.876 3.818 1.971 4.819.626 1.471-1.972 3.443-1.846 5.415-1.846h.751l.375.375-.031.031Z" fill-rule="nonzero"></path><path d="M25.612 195.863c.626-.501 1.095-1.095 1.001-1.971a48.877 48.877 0 0 1-.751-6.165v-1.095c-.125-1.972-2.097-3.568-4.068-3.693h-7.887c-.876 0-1.22.376-1.345 1.221v1.345c.375 4.319 1.001 8.637 2.347 12.705.876 2.597 1.846 5.164 2.973 7.636v.125c.125.375.25.626.751.626s.501-.501.501-1.002c0-.876.375-1.596.625-2.347 1.221-3.066 3.193-5.664 5.915-7.635v.25h-.062ZM231.098 194.017c-.125.876.25 1.471 1.001 1.971 2.723 1.972 4.695 4.569 5.915 7.636.251.751.501 1.471.626 2.347 0 .375 0 .876.501 1.001.375 0 .626-.25.751-.626a89.76 89.76 0 0 0 2.973-7.635c1.346-4.193 1.972-8.387 2.347-12.705v-1.346c0-.876-.501-1.22-1.346-1.22h-7.886c-1.972 0-3.818 1.721-4.068 3.692v1.096c-.251 2.096-.376 4.193-.751 6.164v-.375h-.063ZM75.653 202.278c-3.818-12.204-19.121-6.415-17.15 2.723.376 1.846 1.471 3.317 3.443 3.817 1.846.501 2.848-.751 3.693-2.221.375-.626.876-.626 1.345 0 .376.375.376.876.376 1.345-1.346 13.926-18.37 18.369-28.854 9.732a27.9 27.9 0 0 1-7.386-9.857c-.125-.375-.376-.751-.751-.876-.501 0-.626.375-.876.751-1.597 2.848-2.598 5.789-2.598 9.012 0 3.224 0 3.818 1.001 5.664 1.847 3.317 4.695 5.414 8.012 7.135 19.841 9.607 45.848-1.846 39.558-27.006l.125-.25.062.031ZM199.051 204.969c1.972-9.106-13.3-14.926-17.15-2.722-6.29 25.253 19.716 36.738 39.558 27.006 3.317-1.721 6.165-3.818 8.011-7.135 1.002-1.721 1.002-3.693 1.002-5.664 0-3.192-1.002-6.165-2.598-8.887-.125-.376-.375-.751-.876-.751s-.626.375-.751.751a27.912 27.912 0 0 1-7.386 9.857c-10.484 8.762-27.477 4.319-28.854-9.732 0-.501 0-1.001.375-1.346.501-.5 1.002-.626 1.346 0 .876 1.346 1.846 2.598 3.693 2.222 1.972-.501 3.067-1.971 3.442-3.818l.126.251.062-.032Z" fill-rule="nonzero"></path><path d="M25.111 213.857c.501-3.443 1.346-6.791 3.693-9.482a24.84 24.84 0 0 1 6.791-5.664c.25-.125.626-.376.876-.501 1.002-.375 1.346 0 1.346 1.001v.752c-.125 1.846.626 3.317 2.222 4.193 1.471.876 2.973.876 4.444 0 3.943-2.472 3.568-9.106.25-11.829-2.848-2.347-6.165-3.192-10.108-3.192-1.596 0-3.317.25-5.039 1.095-1.471.751-1.345 1.346-.876 3.192.25 1.096.751 1.096 2.222.501 2.598-1.001 5.289-1.095 8.012-.501 1.22.251 2.347.751 2.973 1.847.25.375.5.876.125 1.345-.376.501-.876.251-1.221 0-1.095-.626-2.222-1.001-3.442-1.22-3.818-.626-7.042.876-10.109 2.722-1.596 1.002-2.847 2.222-3.818 3.818-2.722 4.444-3.067 9.231-1.47 14.176.625 1.846 1.47 3.567 2.722 5.038.251.375.626.751 1.096.501.375-.251.25-.626.125-.877v-.25c-.626-2.097-.877-4.318-.501-6.54l-.25-.125h-.063ZM228.907 204.375c2.347 2.722 3.192 6.039 3.693 9.482.375 2.221 0 4.443-.501 6.54v.25c0 .376-.25.751.125.876.501.251.877-.25 1.096-.5 1.22-1.471 2.222-3.192 2.722-5.038 1.596-4.945 1.221-9.733-1.47-14.176-1.002-1.596-2.348-2.848-3.819-3.818-3.066-1.846-6.29-3.317-10.108-2.722-1.22.25-2.347.625-3.442 1.22-.376.25-.877.501-1.221 0-.376-.375-.125-.876.125-1.346.751-1.095 1.847-1.596 2.973-1.846 2.723-.626 5.414-.501 8.012.501 1.471.626 1.972.501 2.222-.501.501-1.846.626-2.472-.876-3.192-1.722-.876-3.443-1.22-5.039-1.095-3.943 0-7.261.876-10.108 3.192-3.318 2.722-3.693 9.356.25 11.829 1.471 1.001 2.973 1.001 4.444 0 1.596-.877 2.347-2.347 2.222-4.194v-.751c0-1.001.375-1.345 1.346-1.001.25 0 .626.25.876.501 2.597 1.47 4.819 3.317 6.791 5.664l-.25.125h-.063ZM14.909 161.222c1.721 0 3.442 0 5.163.125 1.596 0 2.348-.376 2.598-1.972.501-4.318 1.721-8.386 3.442-12.329 1.471-3.442 3.067-6.791 5.039-9.857 2.347-3.693 5.414-7.041 9.013-9.607 5.414-3.818 11.329-5.664 17.995-4.819.751 0 1.346 0 1.846-.376a117.432 117.432 0 0 1 6.666-4.444c.125 0 .376-.25.626-.25.626-.25 1.096-.501 1.096-1.22 0-.877-1.002-1.221-1.722-1.471-.125 0-.25 0-.375-.125-4.319-1.847-8.763-2.723-13.301-2.222-3.442.125-6.791 1.001-9.983 2.222-4.194 1.721-7.887 4.068-11.329 6.916-2.973 2.472-5.539 5.038-7.886 8.011-3.193 4.318-5.665 9.106-7.511 14.175-1.596 4.319-2.348 9.013-3.067 13.55 0 .501-.126 1.002-.251 1.471-.25 1.346.376 2.097 1.847 2.097l.125.125h-.031ZM242.709 161.222c1.345 0 2.096-.751 1.846-2.097 0-.501-.125-1.001-.25-1.471-.751-4.568-1.471-9.106-3.067-13.55-1.847-5.038-4.319-9.857-7.511-14.175-2.222-2.973-4.945-5.664-7.887-8.011a40.073 40.073 0 0 0-11.329-6.916c-3.192-1.221-6.54-2.097-9.983-2.222-4.569-.375-9.013.376-13.3 2.222-.126 0-.251 0-.376.125-.751.376-1.596.626-1.721 1.471 0 .751.501 1.001 1.095 1.22.251 0 .376.125.626.251 2.222 1.345 4.569 2.847 6.666 4.443.626.376 1.221.501 1.846.376 6.666-1.002 12.581.876 17.995 4.819 3.693 2.597 6.666 5.914 9.013 9.607 1.972 3.067 3.568 6.415 5.039 9.857 1.721 3.943 2.973 8.011 3.443 12.33.25 1.596.876 2.096 2.597 1.971 1.721 0 3.443 0 5.164-.125l.125-.125h-.031ZM55.937 236.794c-.376-1.971-1.001-2.347-3.067-2.221-1.221 0-1.596.626-1.095 1.846.626 1.346.751 2.722.876 3.943 0 1.471-.125 2.848-.626 4.193-.376 1.221-1.22 2.222-2.347 2.723-.501.25-1.095.375-1.471-.126-.376-.5 0-.751.125-1.001l.251-.25c.125-.125.25-.376.375-.501.125-.25.376-.375.501-.626 1.971-2.847 1.471-5.789.375-8.762-.375-.876-1.095-1.22-1.971-1.471-.501 0-1.002-.25-1.346.251-.25.375-.125.626 0 1.001v.125c.751 1.596.751 3.192.501 4.945-.376 1.846-1.471 3.191-2.473 4.694v.125l-.125.125c-1.471 1.846-1.22 4.443.501 5.664 1.596 1.22 4.569 1.001 6.416-.501 4.443-3.692 5.789-8.637 4.694-14.176h-.094ZM204.841 234.573c-1.972-.126-2.723.25-3.067 2.221-1.095 5.664.25 10.484 4.694 14.176 1.847 1.471 4.82 1.721 6.416.501 1.721-1.221 1.846-3.818.501-5.664 0 0-.125-.25-.251-.376-1.095-1.345-2.222-2.722-2.472-4.694-.376-1.721-.25-3.317.501-4.944v-.125c.125-.376.25-.626 0-1.001-.376-.501-.876-.376-1.346-.251-.876.251-1.596.626-1.972 1.471-1.095 2.973-1.596 5.914.376 8.762.125.25.376.376.501.626.125.125.25.25.375.501l.251.25c.25.25.5.501.125 1.001-.501.501-1.002.376-1.471.125-1.095-.625-1.972-1.595-2.347-2.722-.501-1.22-.626-2.597-.626-4.193 0-1.221.25-2.723.876-3.943.501-1.221.125-1.721-1.095-1.847l.125.126h-.094ZM45.109 238.015c0-1.002 0-2.097-.751-3.067-.125-.25-.376-.501-.751-.375-.376 0-.501.5-.376.751.251.876 0 1.596-.25 2.347 0 .375-.251.751-.251 1.22 0 .626-.375 1.001-.751 1.471-.25.25-.5.375-.876.25-.375 0-.501-.501-.375-.876 0-.376.125-.751.25-1.095.375-1.002.501-1.972.501-3.067 0-1.095-.501-1.971-1.471-2.347-1.471-.626-2.973-1.346-4.569-1.971-1.002-.376-1.847 0-1.972 1.095-.25 2.597.25 4.944 3.192 5.789 1.471.501 1.596.751 1.596 2.347 0 1.721.501 3.192 1.596 4.569.751.751 1.596.876 2.347 0 1.847-1.972 2.974-4.319 2.723-7.041h.188Z" fill-rule="nonzero"></path><path d="M213.353 234.948c-.626 1.002-.626 1.972-.751 3.067-.25 2.722.876 5.038 2.723 7.041.751.751 1.596.751 2.347 0 1.22-1.221 1.596-2.848 1.596-4.569 0-1.596.125-1.846 1.596-2.347 2.973-.876 3.317-3.192 3.192-5.789 0-1.002-1.001-1.471-1.971-1.095-1.597.625-3.067 1.22-4.57 1.971-1.001.376-1.47 1.22-1.47 2.347s.25 2.097.5 3.067c0 .375.251.751.251 1.095s0 .751-.376.876-.751 0-.876-.25c-.376-.376-.626-.876-.751-1.471 0-.375-.125-.751-.251-1.22-.25-.751-.5-1.471-.25-2.347 0-.251 0-.751-.376-.751-.375 0-.5.125-.751.375h.188ZM98.843 223.464c.376-2.347.501-4.569-1.596-6.29-1.346-1.096-1.972-2.598-2.222-4.194-.501-3.191-4.068-5.664-7.636-3.066-1.846 1.345-2.973 3.817-.376 5.664.626.375.877 1.001 1.096 1.721.5 2.222 0 4.193-1.096 6.165-.625 1.095-1.001 2.221-1.22 3.442-.125.751.25 1.095 1.001 1.001.376 0 .626 0 1.002-.125.25 0 .626 0 .876-.125 2.097-.25 4.068 0 5.665 1.596 1.22 1.22 1.971 1.001 2.597-.376.876-1.596 1.596-3.442 1.846-5.288l.126-.125h-.063ZM160.339 217.299c-1.972 1.721-1.972 3.943-1.596 6.29.25 1.846 1.001 3.692 1.846 5.288.626 1.221 1.346 1.471 2.598.376 1.596-1.471 3.567-1.846 5.664-1.596.251 0 .501 0 .877.125.375 0 .625.125 1.001.125.751.125 1.095-.25 1.001-1.001-.25-1.221-.625-2.472-1.22-3.442-1.095-1.972-1.596-3.943-1.095-6.165.125-.751.5-1.221 1.095-1.721 2.597-1.847 1.596-4.319-.376-5.664-3.567-2.598-7.135 0-7.636 3.066-.25 1.722-.876 3.067-2.222 4.194l.126.125h-.063Z" fill-rule="nonzero"></path><path d="M144.315 298.035c1.221 0 1.847-.501 1.972-1.596a8.364 8.364 0 0 1 1.471-3.317c.626-1.001.501-1.346-.751-1.471-4.82-.375-8.763-2.597-12.08-5.914-2.222-2.097-4.069-4.569-5.289-7.511-.125-.375-.376-1.001-1.002-1.001s-.751.501-1.001 1.001c-1.221 2.848-3.067 5.289-5.289 7.511-3.317 3.317-7.261 5.413-12.08 5.914-1.221.125-1.471.501-.751 1.471.626 1.001 1.22 2.097 1.471 3.317.125 1.095.751 1.596 1.971 1.596 10.359-.125 20.843-.125 31.202 0h.156Zm-17.369-11.829c-1.846 2.472-4.068 4.444-6.916 5.664 0 0-.25 0-.375.125-.376.126-.877.376-.752.877 0 .5.752.5 1.346.5h16.649c.501 0 1.221 0 1.346-.5 0-.501-.375-.626-.751-.877 0 0-.25 0-.376-.125-2.848-1.22-5.038-3.192-6.916-5.664-1.001-1.471-2.472-1.471-3.442 0h.187Z"></path><path d="M218.549 38.835c.125-.751.25-1.596.625-2.347.376-1.002 1.002-1.721 1.722-2.472.375-.501.876-.877 1.095-1.346 1.471-2.597 0-6.04-1.346-8.387-1.345-2.347-3.442-4.318-5.539-5.914-1.721-1.346-3.693-2.347-5.79-3.192-2.722-1.095-3.067-2.222-3.567-3.818-.251-.75-.501-1.47-1.002-2.472-1.001-1.596-2.973-2.472-4.819-2.472-1.722 0-3.192.751-4.82 1.47-.751.376-1.471.752-2.347 1.096-1.346.5-2.723.626-4.068.751-.501 0-1.096.125-1.596.25a35.322 35.322 0 0 0-8.137 2.097c-4.569 1.596-8.763 4.193-12.456 7.26-1.346 1.095-2.723 2.222-3.818 3.442-1.001 1.002-1.846 2.222-2.723 3.317-.5.626-1.001 1.22-1.47 1.847-1.722 2.221-3.443 4.569-4.945 6.916v10.232c8.637-19.339 32.923-39.804 55.831-25.629-25.255-8.386-41.404 3.192-55.831 27.35v7.041h2.973c.626 0 1.001 0 1.22-.125.626-.25 1.002-1.095 1.972-3.317.25-.5.501-1.095.876-1.846a47.812 47.812 0 0 1 5.039-8.762c6.04-8.136 13.551-13.55 23.784-14.802 5.665-.75 12.08.25 15.523 5.289.751 1.001 1.596 2.597.25 3.442-.626.375-1.345.5-2.096.5h-.752c-1.971.251-3.818 1.346-5.038 2.974-1.596 2.221-1.972 5.163-1.346 7.76.626 2.973 2.973 5.163 5.915 6.04 4.068 1.095 9.013.25 12.205-2.723 2.222-2.096 3.318-5.163 4.194-8.01.125-.502.25-1.002.375-1.472h-.125l.032.032ZM143.971 68.907c0-.25 1.346-.5 1.596-.5h2.974c.25 0 1.596.25 1.596.5.25.25.375.751.375 1.471v188.228c-.25-.501-.626-.876-.876-1.221-.751-.751-2.097-1.971-2.848-2.472-.501-.25-1.001-.626-1.471-.751h-.125c-.376-.25-1.095-.501-1.346-.626V70.628c0-.75 0-1.22.376-1.596l-.251-.125ZM138.526 252.942V70.128c0-.751-.251-1.22-.626-1.471-.251-.25-1.221-.25-1.221-.25h-3.192c-.25 0-1.346 0-1.596.375-.626.376-.626 1.002-.626 2.097v183.158c.376 0 1.346-.125 1.721-.25.751 0 1.346-.251 2.097-.376.626-.125 1.721-.375 2.347-.375h1.096v-.126.032ZM126.196 70.754v183.158c-.376 0-.751 0-1.096-.125-.626 0-1.846-.251-2.472-.501-.626-.125-1.221-.25-1.972-.376-.375 0-1.345-.125-1.721-.125V70.128c0-.751.25-1.22.626-1.471.25-.125.751-.25 1.095-.25h3.318c.25 0 1.345 0 1.596.375.626.376.626 1.002.626 2.097v-.125ZM113.896 253.536V70.503c0-.876 0-1.345-.375-1.596 0-.25-1.346-.5-1.471-.5h-2.973c-.251 0-1.471.25-1.596.5-.251.25-.376.751-.376 1.471v188.603c.25-.5.626-.876.876-1.345.751-.877 2.222-2.222 3.067-2.723.376-.25 1.471-.751 1.847-1.001.375-.125.626-.251 1.001-.376ZM133.487 53.605c-.25 0-1.596 0-1.596-.25-.25-.25-.5-.626-.5-1.002V26.85c0-.75 0-1.22.375-1.47 0-.25 1.346-.501 1.596-.501h2.973c.251 0 1.471.375 1.471.626.251.375.251.876.251 1.596v25.378c0 .376 0 .626-.376.877 0 .25-1.346.375-1.596.375h-2.848l.25-.125ZM119.561 53.386c0 .25 1.346.25 1.596.25h2.848c.25 0 1.596 0 1.596-.375.25-.25.375-.5.375-.877V26.882c0-.626.001-1.096-.375-1.346 0-.25-1.346-.5-1.471-.5h-2.973c-.25 0-1.221.25-1.471.375-.25.375-.375.876-.375 1.721V52.51c0 .375.125.75.375.876h-.125ZM107.481 53.26c0 .251 1.346.376 1.596.376h2.848c.25 0 1.596 0 1.596-.25.25-.25.375-.5.375-.876V27.006c0-.751 0-1.095-.375-1.47-.125-.251-1.346-.502-1.471-.502h-2.973c-.25 0-1.471.25-1.471.501-.25.376-.376.876-.376 1.596V52.51c0 .375.126.626.376.876l-.125-.125ZM143.971 25.253c0-.25 1.096-.25 1.471-.25h2.973c.251 0 1.596 0 1.596.376.626.375.626 1.001.626 2.096V52.51c0 .5-.25.876-.626 1.095-.25.125-1.095 0-1.47 0h-4.319c-.376-.25-.751-.626-.751-1.095V26.88c0-.75.25-1.22.626-1.47l-.126-.125v-.032ZM103.537 69.877v18.62c0 18.369-15.522 28.977-33.048 40.931-13.676 9.357-28.729 19.589-38.337 35.017-.626-.376-1.001-1.001-1.47-1.596-.877-1.22-1.847-2.597-4.069-2.347-.501 0-1.001-.501-.751-1.001 7.511-15.271 21.218-24.659 34.769-34.016 19.341-13.299 38.588-26.505 38.838-56.327 0-.376.375-.751.751-.751h.626c2.472 0 2.848 0 2.848 1.47h-.157ZM154.205 88.497v-18.62c0-1.47.376-1.47 2.848-1.47h.626c.375 0 .751.375.751.75.25 29.948 19.341 43.029 38.838 56.328 13.551 9.357 27.258 18.745 34.769 34.016.25.5-.251 1.001-.751 1.001-2.222-.25-3.192 1.095-4.069 2.347-.5.626-.876 1.22-1.471 1.596-9.607-15.396-24.535-25.629-38.336-35.017-17.495-11.954-33.048-22.562-33.048-40.931h-.157ZM84.04 340.562c.251-.626.751-.876 1.596-.876h85.062c1.721 0 2.472 0 2.722.876.125 1.972 0 3.943-.25 5.915-.376.625-1.002.876-2.222.876H85.762c-.877 0-1.346-.251-1.596-.876-.126-1.972-.251-3.943 0-5.915h-.126ZM156.896 16.022c1.722 0 2.473.25 2.848 1.22v.376c0 .376.125 1.001.125 1.22v.751c0 1.972-.626 2.848-2.597 2.848h-55.956c-3.193.125-3.693-.375-3.818-3.567V16.992c0-.876.625-1.22 1.47-1.22h57.803l.125.25ZM164.908 9.231c-.251-.75-.876-1.001-1.721-1.001H93.523c-.751 0-.876.376-1.002 1.001 0 .751-.375 2.222 0 3.067.251.876.626 1.22 1.596 1.22l69.038.25c1.596 0 1.847-.124 1.972-1.72 0-.626 0-2.097-.25-2.848l.031.031ZM111.894 301.383c0 .626-.126 1.847 0 2.347.375 1.596.5 1.721 2.096 1.721h29.825c.876 0 1.596-.375 1.721-1.095 0-.626-.125-2.222-.25-2.848-.376-1.001-1.346-1.095-2.347-1.095h-29.825c-.626 0-1.095.501-1.22 1.095v-.125ZM109.922 308.768c.375-.751 1.095-1.001 1.971-1.001h33.048c.876 0 1.721.25 2.222 1.001.501 1.221 1.596 3.317 2.347 4.444.626 1.001.251 1.846-1.001 1.721l-39.933-.25c-1.002 0-1.346-.626-.751-1.471.751-1.095 1.596-3.192 2.097-4.444ZM107.606 317.155c-1.847 0-3.192 0-4.569.876l-4.444 3.317c-.751.626-.626 1.002.375 1.002h59.555c.376 0 .752 0 .877-.376.125-.375-.125-.501-.376-.751-1.095-.626-3.317-2.347-4.444-3.067-.626-.375-1.471-.876-2.097-.876h-44.502l-.375-.125ZM86.763 326.042c.251-.5.876-1.596 1.346-1.596H168.1c1.095 0 2.097 1.096 2.472 1.596 0 .376.126.751.126 1.095v.751c0 1.471-.251 1.972-1.847 2.097H88.109c-1.346 0-1.847-2.347-1.596-3.943h.25ZM84.917 332.207c-.751 0-1.221.25-1.596.876 0 .626-.376 2.222-.251 2.848 0 1.001.626 1.471 1.597 1.596l86.907-.251c2.598.126 2.848 0 2.973-2.472 0-.25 0-.876-.125-1.22v-.501c-.25-.751-1.002-.876-2.347-.876H84.917ZM94.9 57.078c.125-.876.626-1.095 1.721-1.095h64.218c.877 0 1.346.376 1.471 1.096l-.25 8.01c-.25.752-.876 1.002-2.097.877H96.59c-10.609 0-1.346-.376-1.596-1.002 0 0-.251-5.914-.251-8.01l.126.124h.031Z" fill-rule="nonzero"></path><path d="M128.793 261.078c-.25 0-.626-.25-1.095-.751-1.002-1.002-2.097-1.346-3.443-1.471-1.095 0-1.971.501-1.971 1.346 0 1.001.876 1.095 1.721 1.22 1.095 0 1.846.751 2.222 1.721.375 1.002.376 1.972.25 2.848v.25c0 1.346-.125 2.598-.375 3.693-.501 3.442-1.471 6.79-3.067 9.982-3.067 6.29-12.581 10.859-18.245 9.107h-.376c-.376 0-.751-.126-.876-.626-.125-.626.25-.877.626-1.096 1.971-1.345 3.442-3.066 4.444-5.163 2.472-4.694 2.722-9.482.25-14.176-2.347-4.568-.25-8.762 3.192-10.858 3.067-1.847 6.416-1.847 9.608-1.096 2.347.501 4.569.751 6.791.626 2.222 0 4.569-.125 6.791-.626 3.317-.751 6.666-.751 9.608 1.096 3.442 2.096 5.539 6.415 3.192 10.858-2.472 4.694-2.097 9.482.25 14.176 1.002 2.097 2.473 3.818 4.444 5.163.376.251.876.501.626 1.096 0 .375-.501.5-.876.626h-.376c-5.789 1.846-15.272-2.723-18.245-9.107-1.471-3.192-2.597-6.54-3.067-9.982-.125-1.221-.375-2.347-.375-3.693 0-1.001 0-1.971.25-2.973.375-1.001 1.095-1.596 2.222-1.721.876 0 1.596-.125 1.721-1.22 0-.751-.876-1.346-1.971-1.346-1.221.125-2.473.501-3.443 1.471-.501.501-.876.751-1.095.751l.751-.125h-.063Zm-17.744 26.505c-.501.25-1.002.501-1.346 0-.376-.501 0-1.001.501-1.346 1.001-.876 1.721-1.846 2.597-3.066 1.221-1.721 2.473-3.568 3.067-5.789 1.221-4.569 1.002-9.013-.25-13.425v-.251c-.125-.5-.376-1.095.25-1.47.876-.376 1.471.626 1.721 1.22 2.222 3.442 2.348 7.385 1.722 11.203-.626 3.693-2.222 7.041-4.444 9.982-1.002 1.221-2.222 2.347-3.568 2.973h-.25v-.031Zm35.614 0c.501.25 1.001.501 1.346 0 .375-.501 0-1.001-.501-1.346-1.002-.876-1.721-1.846-2.598-3.066-1.22-1.721-2.472-3.568-3.067-5.789-1.22-4.569-1.001-9.013.251-13.425v-.251c.125-.5.375-1.095-.251-1.47-.876-.376-1.47.626-1.721 1.22-2.222 3.442-2.347 7.385-1.721 11.203.626 3.693 2.222 7.041 4.444 9.982 1.001 1.221 2.222 2.347 3.568 2.973h.25v-.031Z"></path></g></svg>