<svg class="Header_textLogo__DNKIW" width="271" height="117" viewBox="0 0 271 117"  xmlns="http://www.w3.org/2000/svg"><style>path, rect { fill: white; }</style><g clip-path="url(#clip0_2710_630)"><path d="M0 76.56C3.3 75.9 3.96 74.91 3.96 67.87V10.45C3.96 3.41 3.3 2.42 0 1.76V0.66H5.39C10.45 0.55 12.1 0 14.63 0C21.23 0 25.74 3.52 25.74 16.28C25.74 25.41 23.21 31.79 18.26 34.1C23.98 35.97 25.52 41.91 25.74 55.55C25.96 72.05 25.96 74.14 27.39 74.14C28.38 74.14 28.6 73.48 29.04 67.54L31.24 67.87C30.91 75.13 29.37 78.32 25.08 78.32C19.58 78.32 18.81 73.7 18.59 58.85C18.37 42.57 17.93 35.09 13.64 35.09H13.53C12.98 35.09 12.1 35.09 10.89 34.76V67.87C10.89 74.91 11.55 75.9 14.85 76.56V77.66H0V76.56ZM12.98 32.89C17.05 32.89 18.7 26.4 18.7 16.28C18.7 5.61 16.61 2.2 13.2 2.2C12.32 2.2 11.55 2.31 10.89 2.75V32.45C11.66 32.78 12.21 32.89 12.98 32.89Z" ></path><path d="M45.32 76.56V77.66H33.22V76.56C36.52 75.9 37.51 74.91 38.28 67.98L45.76 4.95L45.43 2.53V1.43C48.51 1.43 49.61 1.43 51.37 0H52.47L60.5 67.98C61.27 74.91 62.26 75.9 65.56 76.56V77.66H48.29V76.56C53.35 75.9 53.9 74.91 53.13 67.98L51.81 57.2H41.8L40.48 67.98C39.71 74.91 40.26 75.9 45.32 76.56ZM51.59 55L46.86 14.3L42.02 55H51.59Z" ></path><path d="M69.0801 77.66V76.56C72.3801 75.9 73.0401 74.91 73.0401 67.87V10.45C73.0401 3.41 72.3801 2.42 69.0801 1.76V0.66H74.4701C77.6601 0.55 80.7401 0 83.2701 0C90.4201 0 97.4601 7.04 97.4601 39.93C97.4601 72.82 90.4201 78.32 83.2701 78.32C80.7401 78.32 77.6601 77.77 74.4701 77.66H69.0801ZM82.5001 76.12C85.8001 76.12 89.6501 73.04 89.6501 39.93C89.6501 6.82 85.8001 2.2 82.5001 2.2C81.6201 2.2 80.8501 2.42 79.9701 2.86V75.46C80.8501 75.9 81.6201 76.12 82.5001 76.12Z" ></path><path d="M111.54 76.56V77.66H99.4399V76.56C102.74 75.9 103.73 74.91 104.5 67.98L111.98 4.95L111.65 2.53V1.43C114.73 1.43 115.83 1.43 117.59 0H118.69L126.72 67.98C127.49 74.91 128.48 75.9 131.78 76.56V77.66H114.51V76.56C119.57 75.9 120.12 74.91 119.35 67.98L118.03 57.2H108.02L106.7 67.98C105.93 74.91 106.48 75.9 111.54 76.56ZM117.81 55L113.08 14.3L108.24 55H117.81Z" ></path><path d="M142.01 78.3202L132.88 10.3402C131.89 3.41016 130.9 2.42016 127.6 1.76016V0.660156H144.32V1.76016C139.92 2.42016 139.37 3.41016 140.25 10.3402L146.52 62.3702L153.34 10.3402C154.22 3.41016 153.78 2.42016 149.38 1.76016V0.660156H160.82V1.76016C157.52 2.42016 156.53 3.41016 155.54 10.3402L146.08 78.3202H142.01Z" ></path><path d="M164.45 1.76016V0.660156H179.3V1.76016C176 2.42016 175.34 3.41016 175.34 10.4502V67.8702C175.34 74.9102 176 75.9002 179.3 76.5602V77.6602H164.45V76.5602C167.75 75.9002 168.41 74.9102 168.41 67.8702V10.4502C168.41 3.41016 167.75 2.42016 164.45 1.76016Z" ></path><path d="M184.36 76.5602C187.66 75.9002 188.32 74.9102 188.32 67.8702V10.4502C188.32 3.41016 187.66 2.42016 184.36 1.76016V0.660156H199.21V1.76016C195.91 2.42016 195.25 3.41016 195.25 10.4502V75.4602H201.63C206.36 75.4602 206.58 74.8002 208.45 51.5902H210.65L209.22 77.6602H184.36V76.5602Z" ></path><path d="M214.17 76.5602C217.47 75.9002 218.13 74.9102 218.13 67.8702V10.4502C218.13 3.41016 217.47 2.42016 214.17 1.76016V0.660156H229.02V1.76016C225.72 2.42016 225.06 3.41016 225.06 10.4502V75.4602H231.44C236.17 75.4602 236.39 74.8002 238.26 51.5902H240.46L239.03 77.6602H214.17V76.5602Z" ></path><path d="M270.05 26.2902H267.85C266.09 3.52016 265.98 2.86016 261.36 2.86016H254.87V35.5302H258.06C261.25 35.5302 260.81 34.4302 260.26 23.9802H262.46L264.33 50.3802H262.02C260.92 38.8302 261.58 37.7302 257.73 37.7302H254.87V75.4602H261.47C265.87 75.4602 266.31 74.8002 267.96 51.5902H270.16L268.84 77.6602H243.98V76.5602C247.28 75.9002 247.94 74.9102 247.94 67.8702V10.4502C247.94 3.41016 247.28 2.42016 243.98 1.76016V0.660156H268.62L270.05 26.2902Z" ></path><path d="M63.4299 109.62C63.7199 111.97 65.9099 113.12 68.0399 113.12C70.1699 113.12 71.9299 112.01 71.9299 110.18C71.9299 108.61 70.9199 107.5 68.7299 106.78L65.8899 105.83C62.2299 104.65 60.2099 102.53 60.2099 99.1304C60.1799 95.1104 63.2499 92.6904 67.5899 92.6904C72.4199 92.6904 75.0699 96.0904 75.2999 99.3204H71.4799C70.9199 97.1304 69.1899 96.2504 67.5299 96.2504C65.5999 96.2504 64.0699 97.2604 64.0299 98.9304C64.0299 100.63 65.1099 101.54 67.1699 102.23L70.0499 103.15C73.6799 104.33 75.7999 106.52 75.7999 110.04C75.7999 113.96 72.6599 116.67 68.0899 116.67C62.8999 116.67 59.7899 113.27 59.6299 109.61H63.4499L63.4299 109.62Z" ></path><path d="M90.6499 96.7498H83.9199V93.0898H101.23V96.7498H94.4699V116.29H90.6499V96.7498Z" ></path><path d="M120.18 116.67C114.72 116.67 110.93 112.98 110.93 107.2V93.0898H114.75V107.27C114.75 110.9 116.91 112.99 120.17 112.99C123.43 112.99 125.56 110.9 125.56 107.27V93.0898H129.38V107.2C129.38 112.98 125.56 116.67 120.17 116.67H120.18Z" ></path><path d="M141.36 93.0898H148.48C155.37 93.0898 160.63 98.1198 160.63 104.69C160.63 111.26 155.37 116.29 148.48 116.29H141.36V93.0898ZM148.48 112.72C153.45 112.72 156.75 109.22 156.75 104.68C156.75 100.14 153.45 96.6398 148.48 96.6398H145.18V112.71H148.48V112.72Z" ></path><path d="M171.38 93.0898H175.2V116.29H171.38V93.0898Z" ></path><path d="M197.95 116.67C191.29 116.67 185.96 111.38 185.96 104.68C185.96 97.9804 191.29 92.6904 197.95 92.6904C204.61 92.6904 209.94 97.9804 209.94 104.68C209.94 111.38 204.58 116.67 197.95 116.67ZM197.95 112.98C202.52 112.98 206.05 109.29 206.05 104.68C206.05 100.07 202.52 96.3804 197.95 96.3804C193.38 96.3804 189.82 100.07 189.82 104.68C189.82 109.29 193.35 112.98 197.95 112.98Z" ></path></g><defs><clipPath id="clip0_2710_630" class=""><rect width="270.16" height="116.67"  class=""></rect></clipPath></defs></svg>